<svg width="32" height="32" viewBox="0 0 32 32" fill="none" xmlns="http://www.w3.org/2000/svg">
<path d="M5.33341 28C4.60008 28 3.97253 27.7391 3.45075 27.2173C2.92897 26.6956 2.66764 26.0676 2.66675 25.3333V6.66667C2.66675 5.93333 2.92808 5.30578 3.45075 4.784C3.97341 4.26222 4.60097 4.00089 5.33341 4H13.3334C14.0667 4 14.6947 4.26133 15.2174 4.784C15.7401 5.30667 16.001 5.93422 16.0001 6.66667V9.33333H26.6667C27.4001 9.33333 28.0281 9.59467 28.5507 10.1173C29.0734 10.64 29.3343 11.2676 29.3334 12V25.3333C29.3334 26.0667 29.0725 26.6947 28.5507 27.2173C28.029 27.74 27.401 28.0009 26.6667 28H5.33341ZM5.33341 25.3333H13.3334V22.6667H5.33341V25.3333ZM5.33341 20H13.3334V17.3333H5.33341V20ZM5.33341 14.6667H13.3334V12H5.33341V14.6667ZM5.33341 9.33333H13.3334V6.66667H5.33341V9.33333ZM16.0001 25.3333H26.6667V12H16.0001V25.3333ZM20.0001 17.3333C19.6223 17.3333 19.3059 17.2053 19.0507 16.9493C18.7956 16.6933 18.6676 16.3769 18.6667 16C18.6659 15.6231 18.7939 15.3067 19.0507 15.0507C19.3076 14.7947 19.6241 14.6667 20.0001 14.6667H22.6667C23.0445 14.6667 23.3614 14.7947 23.6174 15.0507C23.8734 15.3067 24.001 15.6231 24.0001 16C23.9992 16.3769 23.8712 16.6938 23.6161 16.9507C23.361 17.2076 23.0445 17.3351 22.6667 17.3333H20.0001ZM20.0001 22.6667C19.6223 22.6667 19.3059 22.5387 19.0507 22.2827C18.7956 22.0267 18.6676 21.7102 18.6667 21.3333C18.6659 20.9564 18.7939 20.64 19.0507 20.384C19.3076 20.128 19.6241 20 20.0001 20H22.6667C23.0445 20 23.3614 20.128 23.6174 20.384C23.8734 20.64 24.001 20.9564 24.0001 21.3333C23.9992 21.7102 23.8712 22.0271 23.6161 22.284C23.361 22.5409 23.0445 22.6684 22.6667 22.6667H20.0001Z" fill="url(#paint0_linear_11224_402)"/>
<defs>
<linearGradient id="paint0_linear_11224_402" x1="2.66675" y1="16" x2="29.3334" y2="16" gradientUnits="userSpaceOnUse">
<stop stop-color="#EF8D3C"/>
<stop offset="1" stop-color="#FFA126"/>
</linearGradient>
</defs>
</svg>
