<svg width="32" height="32" viewBox="0 0 32 32" fill="none" xmlns="http://www.w3.org/2000/svg">
<path d="M1.33325 14.6666H5.33325V17.3333H1.33325V14.6666ZM6.53325 4.66659L4.66659 6.53325L7.46659 9.33325L9.33325 7.46659L6.53325 4.66659ZM17.3333 1.33325H14.6666V5.33325H17.3333V1.33325ZM26.6666 14.6666V17.3333H30.6666V14.6666H26.6666ZM13.3333 29.3333C13.3333 30.1333 13.8666 30.6666 14.6666 30.6666H17.3333C18.1333 30.6666 18.6666 30.1333 18.6666 29.3333V27.9999H13.3333V29.3333ZM25.4666 4.66659L22.6666 7.46659L24.5333 9.33325L27.3333 6.53325L25.4666 4.66659ZM23.9999 15.9999C23.9999 18.9333 22.3999 21.5999 19.9999 22.9333V25.3333C19.9999 26.1333 19.4666 26.6666 18.6666 26.6666H13.3333C12.5333 26.6666 11.9999 26.1333 11.9999 25.3333V22.9333C9.59992 21.5999 7.99992 18.9333 7.99992 15.9999C7.99992 11.5999 11.5999 7.99992 15.9999 7.99992C20.3999 7.99992 23.9999 11.5999 23.9999 15.9999ZM21.3333 15.9999C21.3333 13.0533 18.9466 10.6666 15.9999 10.6666C13.0533 10.6666 10.6666 13.0533 10.6666 15.9999C10.6666 18.9466 13.0533 21.3333 15.9999 21.3333C18.9466 21.3333 21.3333 18.9466 21.3333 15.9999Z" fill="url(#paint0_linear_11224_406)"/>
<defs>
<linearGradient id="paint0_linear_11224_406" x1="1.33325" y1="15.9999" x2="30.6666" y2="15.9999" gradientUnits="userSpaceOnUse">
<stop stop-color="#EF8D3C"/>
<stop offset="1" stop-color="#FFA126"/>
</linearGradient>
</defs>
</svg>
