<svg width="32" height="32" viewBox="0 0 32 32" fill="none" xmlns="http://www.w3.org/2000/svg">
<path d="M16.0006 6.66675C16.0006 5.95951 15.7194 5.2811 15.2193 4.78101C14.7192 4.28092 14.0408 3.99977 13.3336 3.99976C11.2418 3.99976 9.69292 4.74431 8.48691 5.95483C7.2458 7.20079 6.31885 8.99368 5.64512 11.1257C4.29338 15.4034 4.08517 20.6163 4.0123 24.2615V24.2625C4.00479 24.6247 4.144 24.8642 4.30039 24.9802H4.29941C5.57164 25.9218 7.47131 26.6869 9.78574 27.2126C12.0823 27.7343 14.6993 27.9998 17.3336 27.9998C23.592 27.9997 28.0006 24.128 28.0006 19.9998L27.9957 19.7703C27.947 18.6245 27.5299 17.5222 26.8033 16.6296C26.0285 15.6778 24.9486 15.0227 23.7467 14.7742C22.5447 14.5257 21.2935 14.6988 20.2047 15.2654C19.1159 15.832 18.2563 16.7575 17.7701 17.8845C17.4784 18.5606 16.6933 18.8725 16.0172 18.5808C15.3411 18.2891 15.0293 17.504 15.3209 16.8279C16.0502 15.1373 17.341 13.7501 18.9742 12.9001C20.6074 12.0503 22.4838 11.7901 24.2867 12.1628C26.0897 12.5356 27.7094 13.5191 28.8717 14.947C30.0335 16.3746 30.6673 18.1592 30.6666 19.9998C30.6666 26.1808 24.4084 30.6667 17.3336 30.6667C14.5321 30.6667 11.7139 30.3855 9.19492 29.8132C6.69441 29.2452 4.39757 28.3701 2.7125 27.1228L2.71152 27.1218C1.73191 26.3952 1.32447 25.2579 1.34629 24.2068C1.41878 20.5813 1.62171 15.0101 3.10312 10.322C3.84605 7.97114 4.94186 5.73486 6.59726 4.073C8.28784 2.37592 10.5104 1.33374 13.3336 1.33374C14.7481 1.33375 16.1049 1.89508 17.1051 2.89526C18.1053 3.89546 18.6666 5.25227 18.6666 6.66675C18.6666 7.72745 18.2456 8.74476 17.4957 9.49487C16.7456 10.245 15.7275 10.6667 14.6666 10.6667C13.7469 10.6667 12.9629 10.4801 12.3014 10.1033C11.7232 9.77396 11.3129 9.34165 11.0064 8.90991L10.8814 8.72437L10.8131 8.6062C10.5051 8.00475 10.6965 7.2558 11.276 6.88062C11.8554 6.50572 12.617 6.63759 13.0396 7.16479L13.1197 7.27515L13.2398 7.44604C13.3605 7.60035 13.4827 7.70722 13.6207 7.78589C13.804 7.89031 14.1134 7.99972 14.6666 7.99976C15.0202 7.99976 15.3599 7.85918 15.61 7.60913C15.8598 7.35912 16.0006 7.02021 16.0006 6.66675Z" fill="url(#paint0_linear_11224_391)"/>
<path d="M13.9583 16.263C15.1256 15.9552 16.3477 15.9163 17.5325 16.1478C18.7173 16.3793 19.8346 16.8754 20.8001 17.5999C21.3891 18.0419 21.5086 18.8781 21.0667 19.4671C20.6247 20.0561 19.7885 20.1747 19.1995 19.7327C18.556 19.2499 17.8114 18.9193 17.0218 18.765C16.232 18.6106 15.4171 18.637 14.639 18.8421C13.8608 19.0473 13.1387 19.4258 12.5277 19.9495C11.9166 20.4733 11.4315 21.1288 11.1097 21.8665C10.8152 22.5414 10.0297 22.8503 9.35481 22.556C8.67985 22.2616 8.3719 21.4751 8.66633 20.8001C9.14904 19.6937 9.87579 18.7108 10.7923 17.9251C11.7089 17.1395 12.7911 16.5709 13.9583 16.263Z" fill="url(#paint1_linear_11224_391)"/>
<path d="M12.7262 7.8892C13.3395 7.60516 14.0804 7.82657 14.4323 8.42045C14.8076 9.05403 14.5981 9.87233 13.9645 10.2476L13.8913 10.2974C13.7166 10.4362 13.5155 10.7321 13.36 11.3853C13.1841 12.1244 13.1263 13.0627 13.0856 14.1753C13.0469 15.2345 13.024 16.4562 12.8766 17.564C12.7308 18.6598 12.4414 19.8559 11.7331 20.8003L11.6462 20.9048C11.1882 21.4018 10.4192 21.481 9.86687 21.0669C9.27776 20.6251 9.15844 19.7888 9.60026 19.1997C9.89178 18.8108 10.1056 18.1699 10.2331 17.2124C10.3589 16.2667 10.3789 15.2179 10.4206 14.0777C10.4604 12.9908 10.5206 11.7991 10.7663 10.7671C11.0102 9.74271 11.499 8.60843 12.6061 7.95267L12.7262 7.8892Z" fill="url(#paint2_linear_11224_391)"/>
<defs>
<linearGradient id="paint0_linear_11224_391" x1="1.34546" y1="16.0002" x2="30.6666" y2="16.0002" gradientUnits="userSpaceOnUse">
<stop stop-color="#EF8D3C"/>
<stop offset="1" stop-color="#FFA126"/>
</linearGradient>
<linearGradient id="paint1_linear_11224_391" x1="8.55469" y1="19.3332" x2="21.3335" y2="19.3332" gradientUnits="userSpaceOnUse">
<stop stop-color="#EF8D3C"/>
<stop offset="1" stop-color="#FFA126"/>
</linearGradient>
<linearGradient id="paint2_linear_11224_391" x1="9.3335" y1="14.5499" x2="14.6186" y2="14.5499" gradientUnits="userSpaceOnUse">
<stop stop-color="#EF8D3C"/>
<stop offset="1" stop-color="#FFA126"/>
</linearGradient>
</defs>
</svg>
