<svg width="32" height="32" viewBox="0 0 32 32" fill="none" xmlns="http://www.w3.org/2000/svg">
<path d="M4.99996 26.3334C4.71107 26.0445 4.56662 25.7112 4.56662 25.3334C4.56662 24.9557 4.71107 24.6223 4.99996 24.3334L13.0666 16.2668C13.2 16.1334 13.3444 16.0388 13.5 15.9828C13.6555 15.9268 13.8222 15.8992 14 15.9001C14.1777 15.9001 14.3444 15.9277 14.5 15.9828C14.6555 16.0379 14.8 16.1325 14.9333 16.2668L19.3333 20.6668L27.8666 11.0668C28.1111 10.7779 28.428 10.6334 28.8173 10.6334C29.2066 10.6334 29.5342 10.7668 29.8 11.0334C30.0444 11.2779 30.172 11.5725 30.1826 11.9174C30.1933 12.2623 30.0768 12.5677 29.8333 12.8334L20.2666 23.6001C20.1333 23.7557 19.9835 23.8725 19.8173 23.9508C19.6511 24.029 19.4786 24.0677 19.3 24.0668C19.1222 24.0668 18.9502 24.0334 18.784 23.9668C18.6177 23.9001 18.4675 23.8001 18.3333 23.6668L14 19.3334L6.99996 26.3334C6.71107 26.6223 6.37773 26.7668 5.99996 26.7668C5.62218 26.7668 5.28884 26.6223 4.99996 26.3334ZM5.33329 17.7334C5.22218 17.7334 5.11107 17.7054 4.99996 17.6494C4.88884 17.5934 4.79996 17.4992 4.73329 17.3668L4.06662 15.9334L2.63329 15.2668C2.49996 15.2001 2.40529 15.1112 2.34929 15.0001C2.29329 14.889 2.26573 14.7779 2.26662 14.6668C2.26662 14.5557 2.29462 14.4445 2.35062 14.3334C2.40662 14.2223 2.50084 14.1334 2.63329 14.0668L4.06662 13.4001L4.73329 11.9668C4.79996 11.8334 4.88884 11.7392 4.99996 11.6841C5.11107 11.629 5.22218 11.601 5.33329 11.6001C5.4444 11.6001 5.55551 11.6281 5.66662 11.6841C5.77773 11.7401 5.86662 11.8343 5.93329 11.9668L6.59996 13.4001L8.03329 14.0668C8.27773 14.1779 8.39996 14.3779 8.39996 14.6668C8.39996 14.9557 8.27773 15.1557 8.03329 15.2668L6.59996 15.9334L5.93329 17.3668C5.86662 17.5001 5.77773 17.5943 5.66662 17.6494C5.55551 17.7045 5.4444 17.7325 5.33329 17.7334ZM20 15.0668C19.8888 15.0668 19.7777 15.0388 19.6666 14.9828C19.5555 14.9268 19.4666 14.8325 19.4 14.7001L18.7333 13.2668L17.3 12.6001C17.1666 12.5334 17.0724 12.4445 17.0173 12.3334C16.9622 12.2223 16.9342 12.1112 16.9333 12.0001C16.9333 11.889 16.9613 11.7779 17.0173 11.6668C17.0733 11.5557 17.1675 11.4668 17.3 11.4001L18.7333 10.7334L19.4 9.3001C19.4666 9.16676 19.5555 9.07254 19.6666 9.01743C19.7777 8.96232 19.8888 8.93432 20 8.93343C20.1111 8.93343 20.2222 8.96143 20.3333 9.01743C20.4444 9.07343 20.5333 9.16765 20.6 9.3001L21.2666 10.7334L22.7 11.4001C22.8333 11.4668 22.928 11.5557 22.984 11.6668C23.04 11.7779 23.0675 11.889 23.0666 12.0001C23.0666 12.1112 23.0386 12.2223 22.9826 12.3334C22.9266 12.4445 22.8324 12.5334 22.7 12.6001L21.2666 13.2668L20.6 14.7001C20.5333 14.8334 20.4444 14.9281 20.3333 14.9841C20.2222 15.0401 20.1111 15.0677 20 15.0668ZM11.3333 11.0668C11.2222 11.0668 11.1111 11.0334 11 10.9668C10.8888 10.9001 10.8 10.8001 10.7333 10.6668L9.86662 8.8001L7.99996 7.93343C7.86662 7.86676 7.76662 7.77788 7.69996 7.66676C7.63329 7.55565 7.59996 7.44454 7.59996 7.33343C7.59996 7.22232 7.63329 7.11121 7.69996 7.0001C7.76662 6.88899 7.86662 6.8001 7.99996 6.73343L9.86662 5.86676L10.7333 4.0001C10.8 3.86676 10.8888 3.76676 11 3.7001C11.1111 3.63343 11.2222 3.6001 11.3333 3.6001C11.4444 3.6001 11.5555 3.63343 11.6666 3.7001C11.7777 3.76676 11.8666 3.86676 11.9333 4.0001L12.8 5.86676L14.6666 6.73343C14.8 6.8001 14.9 6.88899 14.9666 7.0001C15.0333 7.11121 15.0666 7.22232 15.0666 7.33343C15.0666 7.44454 15.0333 7.55565 14.9666 7.66676C14.9 7.77788 14.8 7.86676 14.6666 7.93343L12.8 8.8001L11.9333 10.6668C11.8666 10.8001 11.7777 10.9001 11.6666 10.9668C11.5555 11.0334 11.4444 11.0668 11.3333 11.0668Z" fill="url(#paint0_linear_11224_387)"/>
<defs>
<linearGradient id="paint0_linear_11224_387" x1="2.2666" y1="15.1834" x2="30.1833" y2="15.1834" gradientUnits="userSpaceOnUse">
<stop stop-color="#EF8D3C"/>
<stop offset="1" stop-color="#FFA126"/>
</linearGradient>
</defs>
</svg>
