<svg width="20" height="21" viewBox="0 0 20 21" fill="none" xmlns="http://www.w3.org/2000/svg">
<path d="M10.0002 12.1666C11.8385 12.1666 13.3335 10.6716 13.3335 8.83329C13.3335 6.99496 11.8385 5.49996 10.0002 5.49996C8.16188 5.49996 6.66688 6.99496 6.66688 8.83329C6.66688 10.6716 8.16188 12.1666 10.0002 12.1666ZM10.0002 7.16663C10.9194 7.16663 11.6669 7.91413 11.6669 8.83329C11.6669 9.75246 10.9194 10.5 10.0002 10.5C9.08105 10.5 8.33355 9.75246 8.33355 8.83329C8.33355 7.91413 9.08105 7.16663 10.0002 7.16663Z" fill="black"/>
<path d="M9.5169 18.6783C9.65794 18.779 9.82692 18.8332 10.0002 18.8332C10.1735 18.8332 10.3425 18.779 10.4836 18.6783C10.7369 18.4991 16.6911 14.2 16.6669 8.83329C16.6669 5.15746 13.6761 2.16663 10.0002 2.16663C6.3244 2.16663 3.33357 5.15746 3.33357 8.82913C3.3094 14.2 9.26357 18.4991 9.5169 18.6783ZM10.0002 3.83329C12.7577 3.83329 15.0002 6.07579 15.0002 8.83746C15.0177 12.5358 11.3436 15.8566 10.0002 16.9458C8.65774 15.8558 4.98274 12.5341 5.00024 8.83329C5.00024 6.07579 7.24274 3.83329 10.0002 3.83329Z" fill="black"/>
</svg>
